{
    "asset" : {
        "generator" : "Khronos glTF Blender I/O v1.6.16",
        "version" : "2.0"
    },
    "scene" : 0,
    "scenes" : [
        {
            "name" : "Scene",
            "nodes" : [
                0,
                1,
                2,
                3,
                4,
                5,
                6,
                7,
                8,
                9,
                10
            ]
        }
    ],
    "nodes" : [
        {
            "mesh" : 0,
            "name" : "Cube",
            "translation" : [
                0,
                11.101829528808594,
                0
            ]
        },
        {
            "mesh" : 1,
            "name" : "Cube.001",
            "translation" : [
                0,
                1.2597242593765259,
                0
            ]
        },
        {
            "mesh" : 2,
            "name" : "Cylinder",
            "translation" : [
                2.925811290740967,
                5.932894706726074,
                0
            ]
        },
        {
            "mesh" : 3,
            "name" : "Cube.002",
            "rotation" : [
                -1,
                0,
                0,
                -1.6292068494294654e-07
            ],
            "translation" : [
                0,
                15.250167846679688,
                0
            ]
        },
        {
            "mesh" : 4,
            "name" : "Cube.003",
            "translation" : [
                0,
                1.2597242593765259,
                0
            ]
        },
        {
            "mesh" : 5,
            "name" : "Cylinder.001",
            "translation" : [
                2.925811290740967,
                5.932894706726074,
                0
            ]
        },
        {
            "mesh" : 6,
            "name" : "Cube.004",
            "rotation" : [
                -1,
                0,
                0,
                -1.6292068494294654e-07
            ],
            "translation" : [
                0,
                15.448552131652832,
                0
            ]
        },
        {
            "mesh" : 7,
            "name" : "Cube.005",
            "translation" : [
                2.0758533477783203,
                14.998059272766113,
                -10.469586372375488
            ]
        },
        {
            "mesh" : 8,
            "name" : "Cube.006",
            "translation" : [
                -0.5807656049728394,
                11.039754867553711,
                0
            ]
        },
        {
            "mesh" : 9,
            "name" : "Cube.007",
            "rotation" : [
                0,
                1,
                0,
                -1.6292068494294654e-07
            ],
            "translation" : [
                -1.0539696216583252,
                19.649986267089844,
                9.584543228149414
            ]
        },
        {
            "mesh" : 10,
            "name" : "Plane"
        }
    ],
    "meshes" : [
        {
            "name" : "Cube.001",
            "primitives" : [
                {
                    "attributes" : {
                        "POSITION" : 0,
                        "NORMAL" : 1,
                        "TEXCOORD_0" : 2
                    },
                    "indices" : 3
                }
            ]
        },
        {
            "name" : "Cube.002",
            "primitives" : [
                {
                    "attributes" : {
                        "POSITION" : 4,
                        "NORMAL" : 5,
                        "TEXCOORD_0" : 6
                    },
                    "indices" : 7
                }
            ]
        },
        {
            "name" : "Cylinder",
            "primitives" : [
                {
                    "attributes" : {
                        "POSITION" : 8,
                        "NORMAL" : 9,
                        "TEXCOORD_0" : 10
                    },
                    "indices" : 11
                }
            ]
        },
        {
            "name" : "Cube.003",
            "primitives" : [
                {
                    "attributes" : {
                        "POSITION" : 12,
                        "NORMAL" : 13,
                        "TEXCOORD_0" : 14
                    },
                    "indices" : 15
                }
            ]
        },
        {
            "name" : "Cube.004",
            "primitives" : [
                {
                    "attributes" : {
                        "POSITION" : 16,
                        "NORMAL" : 17,
                        "TEXCOORD_0" : 18
                    },
                    "indices" : 19
                }
            ]
        },
        {
            "name" : "Cylinder.001",
            "primitives" : [
                {
                    "attributes" : {
                        "POSITION" : 20,
                        "NORMAL" : 21,
                        "TEXCOORD_0" : 22
                    },
                    "indices" : 23
                }
            ]
        },
        {
            "name" : "Cube.005",
            "primitives" : [
                {
                    "attributes" : {
                        "POSITION" : 24,
                        "NORMAL" : 25,
                        "TEXCOORD_0" : 26
                    },
                    "indices" : 27
                }
            ]
        },
        {
            "name" : "Cube.006",
            "primitives" : [
                {
                    "attributes" : {
                        "POSITION" : 28,
                        "NORMAL" : 29,
                        "TEXCOORD_0" : 30
                    },
                    "indices" : 31
                }
            ]
        },
        {
            "name" : "Cube.009",
            "primitives" : [
                {
                    "attributes" : {
                        "POSITION" : 32,
                        "NORMAL" : 33,
                        "TEXCOORD_0" : 34
                    },
                    "indices" : 35
                }
            ]
        },
        {
            "name" : "Cube.010",
            "primitives" : [
                {
                    "attributes" : {
                        "POSITION" : 36,
                        "NORMAL" : 37,
                        "TEXCOORD_0" : 38
                    },
                    "indices" : 39
                }
            ]
        },
        {
            "name" : "Plane",
            "primitives" : [
                {
                    "attributes" : {
                        "POSITION" : 40,
                        "NORMAL" : 41,
                        "TEXCOORD_0" : 42
                    },
                    "indices" : 43
                }
            ]
        }
    ],
    "accessors" : [
        {
            "bufferView" : 0,
            "componentType" : 5126,
            "count" : 2497,
            "max" : [
                2.9339516162872314,
                8.286018371582031,
                14.324090003967285
            ],
            "min" : [
                -3.5468575954437256,
                -11.102336883544922,
                -14.324090003967285
            ],
            "type" : "VEC3"
        },
        {
            "bufferView" : 1,
            "componentType" : 5126,
            "count" : 2497,
            "type" : "VEC3"
        },
        {
            "bufferView" : 2,
            "componentType" : 5126,
            "count" : 2497,
            "type" : "VEC2"
        },
        {
            "bufferView" : 3,
            "componentType" : 5123,
            "count" : 7155,
            "type" : "SCALAR"
        },
        {
            "bufferView" : 4,
            "componentType" : 5126,
            "count" : 338,
            "max" : [
                4.070926189422607,
                1.5098267793655396,
                13.29535961151123
            ],
            "min" : [
                1.7806966304779053,
                -1.218356966972351,
                -13.29535961151123
            ],
            "type" : "VEC3"
        },
        {
            "bufferView" : 5,
            "componentType" : 5126,
            "count" : 338,
            "type" : "VEC3"
        },
        {
            "bufferView" : 6,
            "componentType" : 5126,
            "count" : 338,
            "type" : "VEC2"
        },
        {
            "bufferView" : 7,
            "componentType" : 5123,
            "count" : 528,
            "type" : "SCALAR"
        },
        {
            "bufferView" : 8,
            "componentType" : 5126,
            "count" : 4378,
            "max" : [
                0.44725853204727173,
                8.201726913452148,
                12.597504615783691
            ],
            "min" : [
                -0.4472585916519165,
                -3.325371026992798,
                -12.597504615783691
            ],
            "type" : "VEC3"
        },
        {
            "bufferView" : 9,
            "componentType" : 5126,
            "count" : 4378,
            "type" : "VEC3"
        },
        {
            "bufferView" : 10,
            "componentType" : 5126,
            "count" : 4378,
            "type" : "VEC2"
        },
        {
            "bufferView" : 11,
            "componentType" : 5123,
            "count" : 18432,
            "type" : "SCALAR"
        },
        {
            "bufferView" : 12,
            "componentType" : 5126,
            "count" : 342,
            "max" : [
                3.751640796661377,
                1.6152616739273071,
                12.97607421875
            ],
            "min" : [
                2.0999820232391357,
                -0.35223880410194397,
                -12.97607421875
            ],
            "type" : "VEC3"
        },
        {
            "bufferView" : 13,
            "componentType" : 5126,
            "count" : 342,
            "type" : "VEC3"
        },
        {
            "bufferView" : 14,
            "componentType" : 5126,
            "count" : 342,
            "type" : "VEC2"
        },
        {
            "bufferView" : 15,
            "componentType" : 5123,
            "count" : 528,
            "type" : "SCALAR"
        },
        {
            "bufferView" : 16,
            "componentType" : 5126,
            "count" : 508,
            "max" : [
                2.6796436309814453,
                8.165966033935547,
                10.996150970458984
            ],
            "min" : [
                0.4671596586704254,
                6.407871246337891,
                -10.996150970458984
            ],
            "type" : "VEC3"
        },
        {
            "bufferView" : 17,
            "componentType" : 5126,
            "count" : 508,
            "type" : "VEC3"
        },
        {
            "bufferView" : 18,
            "componentType" : 5126,
            "count" : 508,
            "type" : "VEC2"
        },
        {
            "bufferView" : 19,
            "componentType" : 5123,
            "count" : 792,
            "type" : "SCALAR"
        },
        {
            "bufferView" : 20,
            "componentType" : 5126,
            "count" : 4378,
            "max" : [
                -0.5675524473190308,
                8.726768493652344,
                10.67476749420166
            ],
            "min" : [
                -0.9795054793357849,
                3.4181771278381348,
                -10.67476749420166
            ],
            "type" : "VEC3"
        },
        {
            "bufferView" : 21,
            "componentType" : 5126,
            "count" : 4378,
            "type" : "VEC3"
        },
        {
            "bufferView" : 22,
            "componentType" : 5126,
            "count" : 4378,
            "type" : "VEC2"
        },
        {
            "bufferView" : 23,
            "componentType" : 5123,
            "count" : 18432,
            "type" : "SCALAR"
        },
        {
            "bufferView" : 24,
            "componentType" : 5126,
            "count" : 334,
            "max" : [
                2.4783120155334473,
                1.3222098350524902,
                10.832655906677246
            ],
            "min" : [
                1.6993937492370605,
                0.39434102177619934,
                -10.832655906677246
            ],
            "type" : "VEC3"
        },
        {
            "bufferView" : 25,
            "componentType" : 5126,
            "count" : 334,
            "type" : "VEC3"
        },
        {
            "bufferView" : 26,
            "componentType" : 5126,
            "count" : 334,
            "type" : "VEC2"
        },
        {
            "bufferView" : 27,
            "componentType" : 5123,
            "count" : 528,
            "type" : "SCALAR"
        },
        {
            "bufferView" : 28,
            "componentType" : 5126,
            "count" : 418,
            "max" : [
                0.7058424353599548,
                0.2351459413766861,
                21.67985725402832
            ],
            "min" : [
                -0.7406824827194214,
                -0.15048781037330627,
                -0.7406823039054871
            ],
            "type" : "VEC3"
        },
        {
            "bufferView" : 29,
            "componentType" : 5126,
            "count" : 418,
            "type" : "VEC3"
        },
        {
            "bufferView" : 30,
            "componentType" : 5126,
            "count" : 418,
            "type" : "VEC2"
        },
        {
            "bufferView" : 31,
            "componentType" : 5123,
            "count" : 696,
            "type" : "SCALAR"
        },
        {
            "bufferView" : 32,
            "componentType" : 5126,
            "count" : 347,
            "max" : [
                2.8193883895874023,
                0.7744670510292053,
                4.763856410980225
            ],
            "min" : [
                1.8816717863082886,
                -2.991351366043091,
                -4.763856410980225
            ],
            "type" : "VEC3"
        },
        {
            "bufferView" : 33,
            "componentType" : 5126,
            "count" : 347,
            "type" : "VEC3"
        },
        {
            "bufferView" : 34,
            "componentType" : 5126,
            "count" : 347,
            "type" : "VEC2"
        },
        {
            "bufferView" : 35,
            "componentType" : 5123,
            "count" : 1008,
            "type" : "SCALAR"
        },
        {
            "bufferView" : 36,
            "componentType" : 5126,
            "count" : 361,
            "max" : [
                2.9714722633361816,
                1.0594327449798584,
                3.669719934463501
            ],
            "min" : [
                -4.27650785446167,
                -0.24915491044521332,
                -5.70865535736084
            ],
            "type" : "VEC3"
        },
        {
            "bufferView" : 37,
            "componentType" : 5126,
            "count" : 361,
            "type" : "VEC3"
        },
        {
            "bufferView" : 38,
            "componentType" : 5126,
            "count" : 361,
            "type" : "VEC2"
        },
        {
            "bufferView" : 39,
            "componentType" : 5123,
            "count" : 780,
            "type" : "SCALAR"
        },
        {
            "bufferView" : 40,
            "componentType" : 5126,
            "count" : 801,
            "max" : [
                40.36848831176758,
                0.46246129274368286,
                36.68798828125
            ],
            "min" : [
                -40.36848831176758,
                0,
                -36.68798828125
            ],
            "type" : "VEC3"
        },
        {
            "bufferView" : 41,
            "componentType" : 5126,
            "count" : 801,
            "type" : "VEC3"
        },
        {
            "bufferView" : 42,
            "componentType" : 5126,
            "count" : 801,
            "type" : "VEC2"
        },
        {
            "bufferView" : 43,
            "componentType" : 5123,
            "count" : 1830,
            "type" : "SCALAR"
        }
    ],
    "bufferViews" : [
        {
            "buffer" : 0,
            "byteLength" : 29964,
            "byteOffset" : 0
        },
        {
            "buffer" : 0,
            "byteLength" : 29964,
            "byteOffset" : 29964
        },
        {
            "buffer" : 0,
            "byteLength" : 19976,
            "byteOffset" : 59928
        },
        {
            "buffer" : 0,
            "byteLength" : 14310,
            "byteOffset" : 79904
        },
        {
            "buffer" : 0,
            "byteLength" : 4056,
            "byteOffset" : 94216
        },
        {
            "buffer" : 0,
            "byteLength" : 4056,
            "byteOffset" : 98272
        },
        {
            "buffer" : 0,
            "byteLength" : 2704,
            "byteOffset" : 102328
        },
        {
            "buffer" : 0,
            "byteLength" : 1056,
            "byteOffset" : 105032
        },
        {
            "buffer" : 0,
            "byteLength" : 52536,
            "byteOffset" : 106088
        },
        {
            "buffer" : 0,
            "byteLength" : 52536,
            "byteOffset" : 158624
        },
        {
            "buffer" : 0,
            "byteLength" : 35024,
            "byteOffset" : 211160
        },
        {
            "buffer" : 0,
            "byteLength" : 36864,
            "byteOffset" : 246184
        },
        {
            "buffer" : 0,
            "byteLength" : 4104,
            "byteOffset" : 283048
        },
        {
            "buffer" : 0,
            "byteLength" : 4104,
            "byteOffset" : 287152
        },
        {
            "buffer" : 0,
            "byteLength" : 2736,
            "byteOffset" : 291256
        },
        {
            "buffer" : 0,
            "byteLength" : 1056,
            "byteOffset" : 293992
        },
        {
            "buffer" : 0,
            "byteLength" : 6096,
            "byteOffset" : 295048
        },
        {
            "buffer" : 0,
            "byteLength" : 6096,
            "byteOffset" : 301144
        },
        {
            "buffer" : 0,
            "byteLength" : 4064,
            "byteOffset" : 307240
        },
        {
            "buffer" : 0,
            "byteLength" : 1584,
            "byteOffset" : 311304
        },
        {
            "buffer" : 0,
            "byteLength" : 52536,
            "byteOffset" : 312888
        },
        {
            "buffer" : 0,
            "byteLength" : 52536,
            "byteOffset" : 365424
        },
        {
            "buffer" : 0,
            "byteLength" : 35024,
            "byteOffset" : 417960
        },
        {
            "buffer" : 0,
            "byteLength" : 36864,
            "byteOffset" : 452984
        },
        {
            "buffer" : 0,
            "byteLength" : 4008,
            "byteOffset" : 489848
        },
        {
            "buffer" : 0,
            "byteLength" : 4008,
            "byteOffset" : 493856
        },
        {
            "buffer" : 0,
            "byteLength" : 2672,
            "byteOffset" : 497864
        },
        {
            "buffer" : 0,
            "byteLength" : 1056,
            "byteOffset" : 500536
        },
        {
            "buffer" : 0,
            "byteLength" : 5016,
            "byteOffset" : 501592
        },
        {
            "buffer" : 0,
            "byteLength" : 5016,
            "byteOffset" : 506608
        },
        {
            "buffer" : 0,
            "byteLength" : 3344,
            "byteOffset" : 511624
        },
        {
            "buffer" : 0,
            "byteLength" : 1392,
            "byteOffset" : 514968
        },
        {
            "buffer" : 0,
            "byteLength" : 4164,
            "byteOffset" : 516360
        },
        {
            "buffer" : 0,
            "byteLength" : 4164,
            "byteOffset" : 520524
        },
        {
            "buffer" : 0,
            "byteLength" : 2776,
            "byteOffset" : 524688
        },
        {
            "buffer" : 0,
            "byteLength" : 2016,
            "byteOffset" : 527464
        },
        {
            "buffer" : 0,
            "byteLength" : 4332,
            "byteOffset" : 529480
        },
        {
            "buffer" : 0,
            "byteLength" : 4332,
            "byteOffset" : 533812
        },
        {
            "buffer" : 0,
            "byteLength" : 2888,
            "byteOffset" : 538144
        },
        {
            "buffer" : 0,
            "byteLength" : 1560,
            "byteOffset" : 541032
        },
        {
            "buffer" : 0,
            "byteLength" : 9612,
            "byteOffset" : 542592
        },
        {
            "buffer" : 0,
            "byteLength" : 9612,
            "byteOffset" : 552204
        },
        {
            "buffer" : 0,
            "byteLength" : 6408,
            "byteOffset" : 561816
        },
        {
            "buffer" : 0,
            "byteLength" : 3660,
            "byteOffset" : 568224
        }
    ],
    "buffers" : [
        {
            "byteLength" : 571884,
            "uri" : "data:application/octet-stream;base64,"
        }
    ]
}
